<svg width="471" height="1193" viewBox="0 0 471 1193" fill="none" xmlns="http://www.w3.org/2000/svg">
<g filter="url(#filter0_f_96_1489)">
<path d="M-17 39.0338L112.294 228.612M179.5 327.152L112.294 228.612M179.5 327.152L81.25 396.931M179.5 327.152L39.6471 266.878M112.294 228.612L188.147 178.591M112.294 228.612L39.6471 266.878M264 128.571L399.5 202.101L450 -43M264 128.571L206.5 -43M264 128.571L365.5 -11.9872M264 128.571L188.147 178.591M264 128.571L132 89.0544M-17 466.71L81.25 396.931M81.25 396.931L179.5 520.232M81.25 396.931L61.5 566.751M179.5 520.232L112.294 699.306M179.5 520.232L61.5 566.751M112.294 699.306L61.5 566.751M112.294 699.306L-33 651.286M112.294 699.306L179.5 767.334M61.5 566.751H-33M179.5 767.334L112.294 915.895M179.5 767.334C171.1 767.334 34.3333 792.344 -33 804.849L112.294 915.895M112.294 915.895L169 1074.96M112.294 915.895L61.5 1037.44L169 1074.96M169 1074.96L61.5 1171L-17 1112.98M-33 305.143L39.6471 266.878M188.147 178.591L132 89.0544M132 89.0544L118 -13.9881" stroke="#FDBB59" stroke-width="2"/>
</g>
<path d="M-17 38.8987L112.294 228.165M179.5 326.543L112.294 228.165M179.5 326.543L81.25 396.207M179.5 326.543L39.6471 266.368M112.294 228.165L188.147 178.226M112.294 228.165L39.6471 266.368M264 128.288L399.5 201.697L450 -43M264 128.288L206.5 -43M264 128.288L365.5 -12.0383M264 128.288L188.147 178.226M264 128.288L132 88.837M-17 465.871L81.25 396.207M81.25 396.207L179.5 519.305M81.25 396.207L61.5 565.747M179.5 519.305L112.294 698.084M179.5 519.305L61.5 565.747M112.294 698.084L61.5 565.747M112.294 698.084L-33 650.143M112.294 698.084L179.5 766M61.5 565.747H-33M179.5 766L112.294 914.316M179.5 766C171.1 766 34.3333 790.969 -33 803.454L112.294 914.316M112.294 914.316L169 1073.12M112.294 914.316L61.5 1035.67L169 1073.12M169 1073.12L61.5 1169L-17 1111.07M-33 304.57L39.6471 266.368M188.147 178.226L132 88.837M132 88.837L118 -14.0358" stroke="#FDBB59"/>
<defs>
<filter id="filter0_f_96_1489" x="-55.3955" y="-63.3179" width="526.375" height="1255.61" filterUnits="userSpaceOnUse" color-interpolation-filters="sRGB">
<feFlood flood-opacity="0" result="BackgroundImageFix"/>
<feBlend mode="normal" in="SourceGraphic" in2="BackgroundImageFix" result="shape"/>
<feGaussianBlur stdDeviation="10" result="effect1_foregroundBlur_96_1489"/>
</filter>
</defs>
</svg>
